<svg xmlns="http://www.w3.org/2000/svg" width="184" height="44" viewBox="0 0 184 44" fill="none"><path d="M165.787 41.8328C167.074 41.8328 168.322 41.8328 169.569 41.8328C169.854 41.8328 170.078 41.9279 170.219 42.1823C170.345 42.4061 170.329 42.6298 170.191 42.8413C170.056 43.0528 169.854 43.1448 169.6 43.1448C168.089 43.1448 166.577 43.1509 165.069 43.1386C164.548 43.1356 164.254 42.8107 164.367 42.3263C165.232 38.5898 166.268 34.9177 168.444 31.6839C169.777 29.7037 171.463 28.0944 173.542 26.9051C173.618 26.8622 173.695 26.8193 173.765 26.7733C173.787 26.758 173.799 26.7304 173.821 26.6998C173.784 26.568 173.652 26.568 173.557 26.5251C172.772 26.1848 172.006 25.8047 171.258 25.3878C170.823 25.1426 170.673 24.7687 170.866 24.4284C171.053 24.1035 171.43 24.0299 171.853 24.2629C173.293 25.0507 174.774 25.7465 176.38 26.1327C177.22 26.335 178.069 26.4331 178.93 26.3197C180.601 26.1021 181.637 25.0997 182.235 23.5855C182.535 22.8253 182.676 22.0314 182.722 21.213C182.737 20.9157 182.651 20.7838 182.36 20.6888C181.171 20.3087 180.012 19.8551 178.933 19.2175C178.532 18.9815 178.152 18.7118 177.824 18.3807C177.533 18.0895 177.275 17.7615 177.205 17.3508C176.987 16.0603 176.23 15.1438 175.194 14.4265C173.836 13.4886 172.306 13.0411 170.682 12.8602C170.354 12.8234 170.256 12.9522 170.207 13.2495C170.044 14.2488 170.28 15.2143 170.437 16.1829C170.645 17.4857 170.893 18.7823 170.829 20.1095C170.737 21.9517 169.986 23.423 168.401 24.4346C167.754 24.8453 167.123 24.8422 166.479 24.456C165.857 24.0821 165.388 23.5487 164.944 22.9939C164.435 22.3594 163.954 21.7065 163.448 21.072C162.985 20.4927 162.498 19.944 161.835 19.57C161.492 19.3769 161.406 19.0183 161.575 18.7118C161.74 18.4114 162.09 18.301 162.442 18.4665C162.936 18.6995 163.337 19.0551 163.714 19.4413C164.487 20.2352 165.106 21.1486 165.79 22.013C166.142 22.4544 166.492 22.9019 166.945 23.2483C167.264 23.4905 167.546 23.5058 167.886 23.2575C168.879 22.5402 169.413 21.5747 169.532 20.37C169.673 18.9233 169.373 17.5132 169.134 16.1002C168.974 15.1683 168.824 14.2365 168.931 13.2924C168.977 12.8939 168.809 12.9001 168.524 12.9583C167.58 13.1545 166.694 13.507 165.851 13.9729C164.275 14.8434 162.896 15.9745 161.593 17.1975C159.53 19.1348 157.498 21.1026 155.447 23.0552C155.089 23.3954 154.727 23.7326 154.344 24.0422C154.123 24.22 154.099 24.361 154.234 24.6154C155.123 26.3227 156.015 28.0301 156.775 29.8018C157.072 30.4945 157.339 31.1965 157.425 31.9566C157.651 33.9644 156.759 35.5368 154.856 36.2449C152.551 37.1032 150.28 36.9039 148.143 35.6962C146.515 34.7767 145.927 33.1153 146.472 31.1873C147.033 29.1979 148.253 27.6285 149.716 26.2246C150.439 25.5288 151.267 24.9587 152.054 24.3426C152.379 24.0882 152.462 23.892 152.244 23.5058C151.781 22.672 151.38 21.8015 150.948 20.9494C150.886 20.8298 150.862 20.603 150.635 20.8298C149.415 22.0498 147.873 22.6138 146.218 22.905C143.294 23.42 140.409 23.2544 137.574 22.3471C137.102 22.1969 136.658 21.9854 136.253 21.6942C136.029 21.5318 135.821 21.3479 135.704 21.0873C135.566 20.7808 135.643 20.5111 135.904 20.3149C136.167 20.1156 136.483 20.1064 136.694 20.3547C137.071 20.8022 137.574 21.0199 138.101 21.1731C141.265 22.0927 144.443 22.2613 147.61 21.2069C149.109 20.7072 150.264 19.7877 150.73 18.1907C150.782 18.0098 150.828 17.8259 150.862 17.642C150.969 17.0289 150.969 17.0289 151.588 17.1454C152.235 17.268 152.238 17.268 152.106 17.9087C152.045 18.206 152.024 18.5309 151.883 18.7884C151.61 19.288 151.732 19.6988 151.981 20.1585C152.447 21.0229 152.876 21.9119 153.299 22.8008C153.434 23.0828 153.526 23.0859 153.752 22.8866C155.285 21.5103 156.756 20.0666 158.234 18.629C159.929 16.9799 161.618 15.3216 163.546 13.933C165.005 12.8817 166.553 11.9774 168.361 11.7138C171.442 11.2632 174.244 11.9774 176.659 13.9821C177.588 14.7545 178.195 15.7507 178.418 16.9554C178.495 17.3661 178.795 17.5991 179.105 17.8137C180.359 18.6811 181.775 19.1961 183.219 19.6467C183.874 19.852 183.979 19.9746 183.997 20.6551C184.028 21.918 183.822 23.138 183.326 24.3028C182.305 26.6844 180.135 27.9351 177.554 27.6285C177.11 27.5764 176.653 27.5304 176.227 27.4017C175.798 27.273 175.445 27.3741 175.068 27.555C172.227 28.9343 170.13 31.0708 168.631 33.8234C167.261 36.3369 166.476 39.0557 165.796 41.8482M152.214 35.4449C153.032 35.4357 153.93 35.31 154.761 34.8717C155.864 34.2862 156.358 33.2686 156.146 32.0455C156.076 31.6287 155.966 31.2271 155.809 30.8348C155.064 28.9619 154.108 27.1933 153.204 25.394C153.118 25.2254 153.05 25.1334 152.857 25.2959C151.932 26.0867 150.896 26.7427 150.059 27.6408C149.01 28.7657 148.109 29.9796 147.702 31.4938C147.272 33.0877 147.784 34.1728 149.277 34.8625C150.175 35.2763 151.126 35.4388 152.214 35.4449Z" fill="#12AC60"></path><path d="M78.1237 9.63846C78.9789 9.63846 79.8065 9.6538 80.6341 9.63234C80.9989 9.62315 80.9253 9.90207 80.9621 10.0768C81.3697 11.9282 81.7621 13.7827 82.1544 15.6371C82.8503 18.9047 83.5492 22.1753 84.2419 25.4428C84.3093 25.7677 84.3614 26.0988 84.4013 26.4298C84.4319 26.6812 84.5729 26.7027 84.7875 26.7027C85.0143 26.7027 85.1124 26.6475 85.1615 26.4053C86.0933 21.737 87.2336 17.1146 88.2543 12.4646C88.3922 11.8424 88.5271 11.2201 88.6711 10.601C88.8397 9.88368 89.1524 9.64153 89.8972 9.63846C90.6973 9.63846 91.4942 9.63846 92.2942 9.63846C93.1127 9.63846 93.4161 9.87755 93.597 10.6745C94.5625 14.9505 95.525 19.2265 96.4906 23.5025C96.7082 24.462 96.9442 25.4214 97.0454 26.3992C97.0791 26.7364 97.2722 26.6812 97.4868 26.6996C97.7381 26.721 97.8424 26.6444 97.8791 26.3808C98.2531 23.6834 98.9427 21.0473 99.4976 18.3836C100.077 15.6065 100.693 12.8386 101.278 10.0645C101.346 9.73962 101.45 9.61088 101.8 9.62928C102.437 9.66299 103.078 9.66912 103.715 9.62928C104.126 9.60475 104.141 9.73961 104.065 10.0768C103.415 12.9121 102.777 15.7505 102.137 18.5859C101.45 21.6205 100.76 24.652 100.074 27.6866C99.9451 28.2567 99.6232 28.5295 99.0378 28.5357C98.0508 28.5449 97.0638 28.5418 96.0737 28.5357C95.4484 28.5326 95.1449 28.2812 95.0101 27.6743C93.8422 22.4358 92.6774 17.1943 91.5004 11.9588C91.4605 11.7811 91.5647 11.4653 91.1724 11.4592C90.9088 11.4592 90.7984 11.5328 90.7433 11.7964C89.649 17.1115 88.4229 22.396 87.255 27.6958C87.1293 28.2659 86.8105 28.5326 86.219 28.5387C85.2166 28.5449 84.2143 28.5449 83.2119 28.5387C82.6602 28.5357 82.3323 28.2782 82.2127 27.7571C80.8456 21.7461 79.4846 15.7383 78.1206 9.72737C78.1175 9.7151 78.1206 9.69977 78.1267 9.64153" fill="#292929"></path><path d="M0.00920469 19.0918C0.00920469 16.1216 0.0183914 13.1483 0 10.1781C0 9.7735 0.0613055 9.63557 0.518026 9.60799C2.80776 9.47925 5.09442 9.39955 7.38722 9.39648C8.31292 9.39648 9.23862 9.47925 10.1521 9.6693C12.6441 10.1935 14.0603 11.7782 14.6549 14.1844C15.1546 16.2013 15.176 18.255 15.1178 20.3149C15.0779 21.7371 14.9216 23.141 14.5078 24.5112C13.7783 26.9205 12.1261 28.2232 9.68311 28.6125C7.89301 28.8975 6.09063 28.778 4.2944 28.7535C3.00394 28.7351 1.71654 28.6339 0.429141 28.591C0.0950298 28.5787 0.00306823 28.4745 0.00306823 28.1374C0.0183944 25.1212 0.0122729 22.108 0.0122729 19.0918M2.62386 19.0551C2.62386 21.4459 2.62386 23.8399 2.62386 26.2308C2.62386 26.4269 2.57174 26.6231 2.90279 26.6201C4.68676 26.5955 6.46767 26.7611 8.25163 26.6139C10.0969 26.4607 11.3383 25.5687 11.8564 23.7908C12.6901 20.9249 12.6319 18.0006 12.0525 15.107C11.5713 12.6947 10.3667 11.7169 7.9114 11.5452C6.27456 11.4318 4.63465 11.5452 2.99474 11.5452C2.69128 11.5452 2.61159 11.6157 2.61466 11.9253C2.62692 14.3039 2.62386 16.6795 2.62386 19.0581" fill="#292929"></path><path d="M29.1812 19.7814C30.7843 20.3331 31.4556 21.5255 31.9062 22.9049C32.4763 24.649 33.0556 26.39 33.6288 28.1342C33.6687 28.2568 33.6993 28.3794 33.7422 28.5388C32.8564 28.5388 32.0012 28.5326 31.146 28.5418C30.913 28.5418 30.9069 28.3794 30.8609 28.2322C30.3092 26.4207 29.7544 24.6091 29.2118 22.7945C28.749 21.2496 28.0072 20.6856 26.404 20.6764C25.0983 20.6703 23.7925 20.6672 22.4867 20.6427C22.1587 20.6366 22.0484 20.7071 22.0514 21.0596C22.0698 23.3953 22.0483 25.731 22.0729 28.0636C22.0759 28.4805 21.9472 28.5633 21.5671 28.5449C21.0031 28.5142 20.433 28.5173 19.869 28.5449C19.5379 28.5602 19.4306 28.4805 19.4368 28.128C19.4582 26.4299 19.446 24.7348 19.446 23.0367C19.446 18.7147 19.446 14.3927 19.4398 10.0707C19.4398 9.76725 19.4797 9.63545 19.8383 9.60786C22.6491 9.39329 25.4599 9.31054 28.2738 9.47912C28.9114 9.51591 29.5398 9.63851 30.1498 9.83468C31.5169 10.2699 32.4119 11.165 32.746 12.5628C33.0894 13.9912 33.1046 15.4318 32.792 16.8694C32.4395 18.4725 31.3912 19.3431 29.8187 19.6465C29.7053 19.668 29.5919 19.6863 29.4754 19.7109C29.4202 19.7231 29.3651 19.7385 29.1781 19.7814M22.0606 15.0456C22.0606 16.1184 22.0606 17.1913 22.0606 18.2641C22.0606 18.448 22.0422 18.5982 22.3181 18.5921C24.1021 18.5522 25.8891 18.6687 27.6731 18.5093C29.1321 18.3775 29.9689 17.7215 30.2356 16.5077C30.4318 15.6065 30.4471 14.6931 30.2847 13.7858C30.0486 12.4585 29.4264 11.8271 28.0838 11.6401C26.2079 11.3765 24.3166 11.5512 22.4315 11.5267C22.1373 11.5236 22.0453 11.6064 22.0514 11.916C22.0729 12.9582 22.0606 14.0034 22.0606 15.0487" fill="#292929"></path><path d="M59.2571 28.5359C59.7996 27.0033 60.3238 25.5197 60.851 24.0392C62.448 19.5609 64.048 15.0795 65.6481 10.6012C65.927 9.81646 66.1815 9.63867 67.0336 9.63867C67.7876 9.63867 68.5448 9.63867 69.2988 9.63867C69.9977 9.63867 70.2797 9.83179 70.5065 10.4724C72.6031 16.3546 74.6967 22.2399 76.8025 28.119C76.9312 28.4746 76.873 28.5604 76.5021 28.542C75.9075 28.5175 75.3097 28.5114 74.7151 28.542C74.3687 28.5604 74.2093 28.4562 74.0989 28.119C73.5533 26.427 72.9679 24.7472 72.4223 23.0552C72.318 22.7364 72.1709 22.6384 71.8399 22.6384C69.357 22.6537 66.8711 22.6537 64.3883 22.6384C64.048 22.6384 63.9101 22.7518 63.809 23.0583C63.2449 24.7748 62.6534 26.4852 62.0894 28.2018C62.0097 28.447 61.9146 28.5481 61.6418 28.542C60.8632 28.5206 60.0816 28.5359 59.2571 28.5359ZM71.4843 20.508C71.4629 20.4099 71.4537 20.3241 71.4291 20.2444C70.485 17.4244 69.5317 14.6044 68.5969 11.7813C68.4957 11.4747 68.2872 11.5453 68.0819 11.5391C67.8673 11.533 67.6926 11.5085 67.5945 11.8089C66.6688 14.6044 65.7247 17.3937 64.7776 20.1831C64.6795 20.4712 64.7285 20.5387 65.035 20.5356C67.0949 20.5233 69.1547 20.5295 71.2146 20.5295C71.3004 20.5295 71.3862 20.5172 71.4904 20.508" fill="#292929"></path><path d="M44.2098 19.0825C44.2098 16.1246 44.2191 13.1666 44.1976 10.2086C44.1945 9.78564 44.2712 9.61707 44.734 9.58948C47.6889 9.41783 50.6438 9.24617 53.5987 9.5527C54.2056 9.61707 54.7941 9.77645 55.3551 10.0247C56.6271 10.5857 57.2616 11.634 57.5099 12.9367C57.8134 14.5306 57.8164 16.1399 57.5068 17.7338C57.1329 19.6557 56.0233 20.6979 54.0738 21.0412C52.3297 21.3477 50.5733 21.2374 48.82 21.1608C48.2989 21.1393 47.7778 21.0994 47.2598 21.0351C46.9318 20.9952 46.846 21.0872 46.849 21.4213C46.8644 23.6252 46.8429 25.8291 46.8674 28.033C46.8735 28.456 46.7632 28.5786 46.3433 28.551C45.7639 28.5112 45.1815 28.5173 44.6022 28.551C44.2589 28.5694 44.2037 28.4438 44.2037 28.1342C44.216 25.118 44.2098 22.1018 44.2098 19.0856M46.8551 15.3368C46.8551 16.4679 46.8674 17.5989 46.849 18.73C46.8429 19.0427 46.9042 19.15 47.2475 19.1469C48.6115 19.1254 49.9786 19.1407 51.3426 19.1377C51.9097 19.1377 52.4707 19.0917 53.0285 18.963C54.0462 18.7239 54.6838 18.1047 54.9137 17.087C55.1681 15.9682 55.1803 14.8402 54.9474 13.7214C54.6838 12.4463 54.0585 11.821 52.7711 11.6401C50.9227 11.3796 49.0621 11.542 47.2076 11.5328C46.9134 11.5328 46.849 11.6279 46.8521 11.9037C46.8674 13.0501 46.8582 14.1935 46.8582 15.3399" fill="#292929"></path><path d="M146.218 2.37083C144.995 3.67662 144.115 5.07437 143.484 6.63458C143.248 7.22004 143.141 7.27828 142.518 7.27215C140.557 7.24763 138.601 7.36718 136.664 7.69823C136.002 7.81164 135.882 7.76565 135.563 7.17099C135.18 6.45373 134.592 5.90812 134 5.37477C133.188 4.64524 132.314 4.00154 131.346 3.49271C131.088 3.35784 130.984 3.39769 130.886 3.67356C130.539 4.65443 130.524 5.66597 130.598 6.68056C130.699 8.05686 130.956 9.40556 131.315 10.7389C131.477 11.3459 131.398 11.9804 131.395 12.6026C131.367 16.4188 130.996 20.2136 130.683 24.0145C130.487 26.4115 130.328 28.8146 130.558 31.2239C130.683 32.5358 131.07 33.7711 131.569 34.9819C132.513 37.2686 133.476 39.5491 134.346 41.8664C134.386 41.9737 134.438 42.0779 134.472 42.1883C134.638 42.7186 134.362 43.1324 133.801 43.1385C132.29 43.1508 130.781 43.1477 129.27 43.1416C128.835 43.1416 128.559 42.8688 128.562 42.4856C128.562 42.1055 128.841 41.8388 129.276 41.8358C130.481 41.8296 131.686 41.8358 132.887 41.8358C132.939 41.6427 132.832 41.5078 132.777 41.3637C132.044 39.5522 131.358 37.7222 130.561 35.9382C129.516 33.5995 129.12 31.1626 129.157 28.6215C129.197 26.0529 129.445 23.4995 129.657 20.9431C129.92 17.7767 130.153 14.6103 130.104 11.4347C130.092 10.6807 129.776 9.97263 129.647 9.23084C129.356 7.55416 129.126 5.87747 129.43 4.17626C129.512 3.70421 129.654 3.24749 129.868 2.81835C130.316 1.92637 130.613 1.80989 131.526 2.18998C132.553 2.61912 133.454 3.25055 134.313 3.94943C135.125 4.61152 135.885 5.32573 136.474 6.20239C136.581 6.36178 136.694 6.38629 136.872 6.36177C138.616 6.13187 140.363 5.97555 142.123 5.99088C142.387 5.99088 142.423 5.82842 142.5 5.65983C143.076 4.3847 143.803 3.20457 144.701 2.12867C145.075 1.68115 145.476 1.26121 146.003 0.991474C146.518 0.730929 146.846 0.829021 147.116 1.34092C147.613 2.29114 147.821 3.33025 147.977 4.3755C148.128 5.3809 148.217 6.39243 148.134 7.41009C148.118 7.59094 148.192 7.7074 148.302 7.83308C149.492 9.18178 150.439 10.6838 151.144 12.3359C151.26 12.6118 151.408 12.6547 151.671 12.6118C152.545 12.4708 153.427 12.3758 154.313 12.3482C154.51 12.3421 154.819 12.2317 154.828 12.5628C154.837 12.857 154.54 12.7773 154.353 12.7926C152.177 12.9428 150.025 13.234 147.968 14.0157C147.806 14.077 147.646 14.1352 147.564 13.936C147.481 13.7337 147.643 13.6509 147.797 13.5896C148.407 13.3536 149.023 13.1451 149.663 13.0103C149.933 12.952 150.016 12.8785 149.881 12.5965C149.161 11.1006 148.299 9.69369 147.15 8.48293C146.868 8.18253 146.791 7.89745 146.828 7.47445C146.972 5.77018 146.736 4.09963 146.212 2.37697" fill="#12AC60"></path><path d="M115.121 11.5081C113.916 11.5326 112.712 11.4743 111.507 11.551C110.036 11.6429 109.45 12.1763 109.263 13.6262C109.205 14.089 109.224 14.5488 109.263 15.0147C109.365 16.2623 110.051 17.0071 111.237 17.2952C112.828 17.6845 114.425 18.0432 116.019 18.4202C116.301 18.4876 116.577 18.5765 116.85 18.6654C118.698 19.2754 119.704 20.5689 119.915 22.4816C120.019 23.4196 120.022 24.3606 119.863 25.2986C119.535 27.2266 118.554 28.2412 116.632 28.609C114.793 28.9615 112.936 28.8972 111.078 28.8175C109.815 28.7623 108.565 28.606 107.311 28.4374C106.98 28.3914 106.854 28.2933 106.928 27.947C106.992 27.6374 107.035 27.3124 107.017 26.9967C106.992 26.5676 107.207 26.5584 107.544 26.5645C109.993 26.6166 112.445 26.8159 114.897 26.6074C115.143 26.586 115.388 26.5492 115.627 26.491C116.697 26.2274 117.184 25.6327 117.294 24.3943C117.346 23.8058 117.346 23.2112 117.245 22.6165C117.098 21.7521 116.632 21.1636 115.808 20.8662C114.824 20.5107 113.788 20.3452 112.779 20.0877C111.964 19.8792 111.142 19.7076 110.33 19.493C107.887 18.8463 106.759 17.4608 106.615 14.9442C106.572 14.2055 106.591 13.4637 106.71 12.7342C107.041 10.7356 108.089 9.72103 110.14 9.46355C113.074 9.09572 115.989 9.29497 118.891 9.79767C119.13 9.84058 119.213 9.91108 119.167 10.1594C119.112 10.472 119.066 10.7939 119.078 11.1096C119.1 11.5448 118.946 11.6521 118.508 11.6337C117.38 11.5939 116.246 11.6215 115.115 11.6215C115.115 11.5816 115.115 11.5418 115.115 11.5019" fill="#292929"></path><path d="M32.6968 36.0547C32.3351 37.2686 31.9765 38.4794 31.6148 39.6932C31.5841 39.6993 31.5504 39.7054 31.5167 39.7116C31.1489 38.7705 30.781 37.8295 30.4132 36.8885C30.3734 36.8885 30.3335 36.8885 30.2937 36.8885C30.1895 37.7314 30.0822 38.5713 29.981 39.4143C29.8768 40.2603 29.7787 41.1093 29.5917 41.9829C29.0921 40.0702 28.5925 38.1575 28.0591 36.1222C27.817 36.6893 27.7342 37.1552 27.6484 37.615C27.5748 38.0104 27.4124 38.1422 26.9894 38.1361C24.5218 38.1115 22.0513 38.133 19.5807 38.1146C19.1975 38.1146 19.0075 38.2158 18.9094 38.5958C18.7899 39.0526 18.5998 39.4909 18.3975 40.0488C18.0266 38.8993 17.6894 37.8479 17.3369 36.7536C17.1591 36.9345 17.1775 37.1245 17.15 37.2931C16.8649 39.0832 16.589 40.8703 16.3009 42.6604C16.2794 42.8014 16.3377 43.0312 16.1139 43.0435C15.8626 43.0588 15.8901 42.8013 15.8625 42.6542C15.6265 41.327 15.4058 39.9997 15.1913 38.6694C15.0503 37.805 14.9246 36.9375 14.7928 36.0731C14.7499 36.067 14.7069 36.0578 14.6671 36.0517C14.1858 37.6119 13.7046 39.1721 13.2264 40.7354C13.0701 40.7109 13.0609 40.5821 13.018 40.484C12.7023 39.8005 12.3804 39.12 12.077 38.4303C11.9911 38.2341 11.8931 38.1299 11.6662 38.1299C8.55809 38.1361 5.44993 38.1361 2.34177 38.1299C2.14253 38.1299 2.04445 38.2035 1.94636 38.3843C1.69502 38.8472 1.2291 39.0127 0.760119 38.8533C0.31566 38.7031 0.116422 38.3353 0.15014 37.7314C0.174662 37.2778 0.462782 36.959 0.922567 36.8701C1.37929 36.7812 1.8115 37.005 1.98621 37.4923C2.09656 37.7989 2.28966 37.7805 2.52875 37.7805C5.59399 37.7805 8.65922 37.7836 11.7214 37.7713C12.0432 37.7713 12.2149 37.8571 12.3375 38.1667C12.5551 38.7092 12.8249 39.2334 13.1284 39.8832C13.7138 37.9797 14.2564 36.2049 14.802 34.4302C14.8326 34.4332 14.8633 34.4363 14.8939 34.4394C15.2679 36.8517 15.6388 39.2641 16.0127 41.6764C16.0556 41.6764 16.0955 41.6733 16.1384 41.6703C16.4664 39.5185 16.7944 37.3667 17.1254 35.2118C17.153 35.2118 17.1837 35.2118 17.2112 35.2118C17.5944 36.4134 17.9776 37.615 18.3791 38.8778C18.5416 38.7031 18.5845 38.5376 18.612 38.3843C18.7009 37.8878 18.9615 37.7406 19.4795 37.7498C21.9195 37.7836 24.3594 37.759 26.7993 37.7713C27.1304 37.7713 27.2775 37.7008 27.348 37.3483C27.5227 36.49 27.7557 35.6409 28.0591 34.7704C28.5158 36.5176 28.9726 38.2617 29.4293 40.0089C29.4722 40.0089 29.5151 40.0089 29.558 40.0089C29.745 38.4763 29.932 36.9467 30.119 35.4141C30.1435 35.4049 30.1711 35.3988 30.1987 35.3896C30.6247 36.4747 31.0477 37.5629 31.4738 38.6479C31.5045 38.6479 31.5351 38.6479 31.5657 38.6479C31.9458 37.3667 32.3259 36.0854 32.7336 34.7122C33.0003 35.2792 33.083 35.8095 33.2516 36.3092C33.362 36.6371 33.4662 36.9713 33.5336 37.3115C33.6041 37.6671 33.7911 37.7468 34.1375 37.7468C39.002 37.7406 43.8696 37.7529 48.7341 37.756C53.3381 37.759 57.9421 37.759 62.5461 37.7621C71.8399 37.7621 81.1368 37.7652 90.4306 37.7652C99.7244 37.7652 108.644 37.7652 117.748 37.7652C117.892 37.7652 118.039 37.7713 118.183 37.7682C118.315 37.7682 118.361 37.8295 118.358 37.9552C118.358 38.087 118.294 38.133 118.171 38.1269C118.085 38.1238 117.996 38.1269 117.91 38.1269C112.102 38.1238 106.29 38.1238 100.482 38.1146C97.358 38.1115 94.2345 38.0717 91.1141 38.0962C85.2319 38.1483 79.3498 38.0962 73.4706 38.1115C70.4943 38.1177 67.5149 38.0656 64.5385 38.0993C60.7192 38.1391 56.9 38.1115 53.0807 38.1115C46.6774 38.1115 40.271 38.0931 33.8677 38.0993C33.4999 38.0993 33.3559 37.9797 33.2731 37.6487C33.1382 37.1123 32.9696 36.582 32.8164 36.0486L32.6999 36.0578L32.6968 36.0547ZM1.64598 37.9062C1.63372 37.5598 1.45898 37.3544 1.131 37.3084C0.845934 37.2686 0.530226 37.5751 0.548617 37.8755C0.567009 38.2035 0.757056 38.4303 1.0881 38.4364C1.41915 38.4426 1.60613 38.228 1.64598 37.9031" fill="#12AC60"></path><path d="M37.0189 26.9327C37.0189 26.5986 37.0006 26.2645 37.022 25.9334C37.0465 25.5411 37.2887 25.3265 37.6749 25.3112C38.1378 25.2928 38.6037 25.2928 39.0665 25.3112C39.4313 25.3265 39.6581 25.5349 39.6857 25.912C39.7347 26.5771 39.7286 27.2423 39.6918 27.9074C39.6704 28.3028 39.4374 28.5143 39.0451 28.5235C38.5945 28.5358 38.1439 28.5358 37.6964 28.5235C37.2825 28.5143 37.0465 28.2906 37.0189 27.8829C36.9975 27.5641 37.0159 27.2453 37.0159 26.9265H37.022" fill="#12AC60"></path><path d="M150.448 14.0464C151.665 13.6234 151.763 13.6786 152.008 14.8924C152.027 14.9782 152.07 15.0641 152.06 15.1468C151.962 16.0695 152.465 16.3821 153.302 16.4649C153.74 16.5078 154.166 16.7009 154.592 16.8327C154.752 16.8818 154.905 16.9645 154.819 17.1729C154.746 17.3507 154.592 17.3109 154.448 17.2649C152.771 16.7346 151.052 16.4005 149.305 16.2105C148.854 16.1614 148.407 16.1614 147.956 16.1798C147.809 16.1859 147.64 16.2074 147.622 16.0051C147.6 15.7905 147.754 15.7415 147.931 15.7323C148.777 15.6863 149.614 15.7476 150.445 15.8978C150.788 15.9591 150.902 15.8978 150.822 15.5147C150.721 15.0181 150.601 14.5276 150.448 14.0464Z" fill="#12AC60"></path><path d="M139.637 16.9553C139.858 16.94 139.971 16.989 139.983 17.1545C139.996 17.317 139.885 17.3691 139.744 17.4059C137.816 17.9117 136.121 18.914 134.429 19.9194C134.205 20.0512 133.997 20.2106 133.782 20.3608C133.647 20.4527 133.516 20.4864 133.408 20.3271C133.31 20.183 133.408 20.0849 133.506 19.993C133.549 19.9531 133.595 19.9194 133.644 19.8887C135.376 18.7454 137.185 17.7553 139.159 17.084C139.336 17.0227 139.52 16.9859 139.637 16.9553Z" fill="#12AC60"></path><path d="M137.884 14.8737C138.291 14.8737 138.696 14.8707 139.104 14.8737C139.272 14.8737 139.45 14.9258 139.432 15.1343C139.413 15.3397 139.235 15.3519 139.064 15.3397C136.866 15.1711 134.726 15.5297 132.602 16.0324C132.532 16.0477 132.461 16.0661 132.391 16.0814C132.25 16.109 132.112 16.0906 132.069 15.9374C132.02 15.7596 132.142 15.6738 132.302 15.637C132.881 15.5052 133.454 15.3519 134.04 15.2416C135.312 15.0056 136.59 14.8278 137.887 14.8707" fill="#12AC60"></path><path d="M83.6749 34.3596C84.4811 34.2186 84.1409 34.9971 84.4964 35.2393C84.6374 35.0462 84.6589 34.7917 84.7233 34.5588C84.7692 34.3871 84.852 34.3258 85.0267 34.332C85.1922 34.335 85.2965 34.3687 85.3394 34.5527C85.4007 34.8009 85.4896 35.0431 85.5815 35.3312C85.7563 35.1136 85.7869 34.8868 85.8267 34.6845C85.8911 34.3657 86.0352 34.2676 86.357 34.3749C86.2068 34.8224 86.0597 35.273 85.9095 35.7236C85.8605 35.8677 85.8053 35.9811 85.6122 35.9719C85.4375 35.9657 85.3547 35.9014 85.3057 35.7358C85.2352 35.4876 85.134 35.2454 85.0175 34.9235C84.9102 35.2393 84.8121 35.4814 84.7478 35.7328C84.7049 35.9014 84.6374 35.9719 84.4566 35.9749C84.2819 35.9749 84.2022 35.9136 84.147 35.7481C83.9999 35.2975 83.8374 34.85 83.6658 34.3657" fill="#292929"></path><path d="M60.2749 34.6353C60.2749 34.2889 60.2811 33.9426 60.2719 33.5962C60.2657 33.4184 60.3454 33.3786 60.5048 33.3755C60.6734 33.3755 60.6949 33.4613 60.6857 33.5931C60.6826 33.6514 60.6887 33.7096 60.6857 33.7678C60.6519 34.1541 60.6029 34.5035 61.219 34.2981C61.5194 34.197 61.8106 34.4085 61.9516 34.715C62.1202 35.0828 62.111 35.4537 61.829 35.7664C61.5899 36.033 61.2772 36.0698 60.9523 35.9625C60.8175 35.9196 60.7286 35.843 60.5631 35.9472C60.4251 36.0361 60.2627 35.9595 60.2719 35.7204C60.2872 35.3587 60.2749 34.997 60.2749 34.6353ZM61.6175 35.138C61.5746 34.8591 61.4336 34.6813 61.1332 34.6935C60.8297 34.7058 60.6826 34.902 60.6949 35.1778C60.7041 35.4384 60.8757 35.6101 61.1516 35.607C61.4428 35.6039 61.596 35.4323 61.6206 35.1411" fill="#292929"></path><path d="M113.371 36.0055C112.752 36.0117 112.356 35.6316 112.369 35.1258C112.384 34.6231 112.816 34.243 113.331 34.2798C113.754 34.3105 114.027 34.6139 114.051 35.0584C114.061 35.2392 114.015 35.325 113.812 35.3128C113.567 35.2975 113.319 35.3067 113.074 35.3128C112.997 35.3128 112.881 35.2699 112.865 35.3956C112.853 35.4875 112.936 35.5488 113.009 35.5948C113.156 35.6898 113.328 35.7082 113.457 35.604C113.644 35.4507 113.834 35.4385 113.907 35.65C113.978 35.8492 113.736 35.9044 113.586 35.9657C113.494 36.0025 113.389 36.0055 113.371 36.0086M113.218 34.9879C113.328 34.9143 113.567 35.0952 113.567 34.8438C113.567 34.6691 113.383 34.6139 113.215 34.617C113.04 34.62 112.868 34.6967 112.874 34.8653C112.884 35.089 113.098 34.9266 113.218 34.9879Z" fill="#292929"></path><path d="M40.1148 35.3192C40.1148 35.4632 40.1148 35.6073 40.1148 35.7514C40.1148 35.8556 40.0933 36.0089 39.9738 35.9506C39.6948 35.8219 39.4619 36.018 39.2044 36.0027C38.9071 35.9843 38.6618 35.8924 38.6189 35.5491C38.5791 35.2242 38.7875 35.077 39.0542 34.9973C39.1768 34.9605 39.3117 34.9667 39.4373 34.9421C39.5324 34.9237 39.7009 35.0096 39.6917 34.8165C39.6856 34.6847 39.56 34.6234 39.4435 34.6203C39.3331 34.6203 39.2044 34.6326 39.1124 34.6877C38.9469 34.7889 38.8121 34.746 38.763 34.5958C38.714 34.4395 38.8887 34.3996 38.999 34.3567C39.5232 34.1605 40.2036 34.2831 40.1178 35.1015C40.1117 35.172 40.1178 35.2456 40.1178 35.3192M39.6948 35.3897C39.6948 35.2456 39.6028 35.218 39.4956 35.2456C39.327 35.2885 39.0818 35.2517 39.0695 35.5092C39.0634 35.6502 39.2105 35.6686 39.327 35.6686C39.5232 35.6717 39.6642 35.6012 39.6948 35.3897Z" fill="#292929"></path><path d="M89.9832 35.31C90.2069 35.6932 90.4491 35.7545 90.7127 35.5552C90.9058 35.4081 91.0253 35.5092 91.102 35.6349C91.2001 35.8004 91.0069 35.8434 90.915 35.8985C90.59 36.0978 90.0935 36.0365 89.8268 35.7729C89.5326 35.4817 89.5142 35.12 89.6552 34.7705C89.8084 34.3935 90.1456 34.2556 90.541 34.2801C90.9579 34.3077 91.2675 34.697 91.2522 35.1138C91.246 35.3131 91.1387 35.31 91.0008 35.3069C90.6881 35.3069 90.3755 35.3069 89.9832 35.3069M90.7924 34.9759C90.7832 34.7552 90.6851 34.6663 90.5564 34.6326C90.397 34.5897 90.2406 34.5989 90.118 34.7399C90.069 34.7981 90.0077 34.8778 90.0598 34.9299C90.1609 35.028 90.305 34.9667 90.4307 34.9759C90.5441 34.9851 90.6606 34.9759 90.7924 34.9759Z" fill="#292929"></path><path d="M66.298 36.0057C65.7678 36.0118 65.3938 35.6746 65.3754 35.175C65.357 34.6846 65.734 34.2953 66.2398 34.2799C66.7701 34.2616 67.1839 34.6355 67.187 35.1413C67.1931 35.6317 66.813 35.9995 66.295 36.0087M66.2398 34.6846C65.9946 34.7152 65.8198 34.8685 65.8229 35.1566C65.826 35.4263 65.9884 35.5888 66.2582 35.6011C66.5555 35.6133 66.7333 35.4325 66.7394 35.1535C66.7455 34.8777 66.58 34.6968 66.2398 34.6815" fill="#292929"></path><path d="M56.7928 35.3067C56.7928 35.4507 56.7928 35.5979 56.7928 35.742C56.7928 35.8492 56.7713 35.9994 56.6518 35.9535C56.3637 35.84 56.1123 36.027 55.8426 36.0086C55.5544 35.9872 55.3307 35.8768 55.2877 35.5642C55.2448 35.2454 55.4471 35.086 55.7199 35.0032C55.8426 34.9664 55.9774 34.9726 56.1062 34.9481C56.2012 34.9266 56.3728 35.0278 56.3759 34.8408C56.3759 34.6875 56.238 34.6354 56.1 34.6201C55.9836 34.6078 55.8671 34.6262 55.7659 34.6936C55.6311 34.7856 55.5084 34.7641 55.4471 34.6201C55.3674 34.4362 55.5514 34.4086 55.6556 34.3626C56.3637 34.053 56.7928 34.4086 56.7928 35.3067ZM56.1184 35.2423C55.9958 35.3128 55.7353 35.2607 55.7353 35.5151C55.7353 35.6653 55.9039 35.6745 56.0357 35.6714C56.2441 35.6714 56.3575 35.5488 56.3698 35.3619C56.379 35.2178 56.2441 35.2454 56.1154 35.2423" fill="#292929"></path><path d="M72.1006 35.1534C72.1006 35.2699 72.1006 35.3864 72.1006 35.5029C72.0914 35.7818 72.1865 36.1834 71.6685 35.8707C71.5826 35.8186 71.5489 35.9198 71.4876 35.9443C71.0094 36.1343 70.6324 35.9075 70.6048 35.4079C70.5895 35.132 70.6048 34.8561 70.6018 34.5833C70.6018 34.4423 70.5956 34.332 70.7979 34.335C71.0033 34.335 71.037 34.427 71.0309 34.6017C71.0217 34.8193 71.0309 35.037 71.037 35.2546C71.0431 35.4477 71.1075 35.6102 71.3313 35.6071C71.5643 35.6071 71.6593 35.4508 71.6623 35.2331C71.6654 35.0155 71.6777 34.7979 71.6623 34.5802C71.647 34.3779 71.7359 34.3412 71.9137 34.3381C72.119 34.335 72.1037 34.4576 72.1037 34.5925C72.1037 34.7795 72.1037 34.9695 72.1037 35.1565" fill="#292929"></path><path d="M104.681 35.3499C104.681 35.494 104.681 35.6411 104.681 35.7852C104.681 35.8802 104.647 35.9967 104.549 35.9538C104.255 35.825 103.997 36.0182 103.721 36.0059C103.427 35.9906 103.216 35.868 103.173 35.5584C103.127 35.2365 103.329 35.0802 103.602 35.0005C103.725 34.9637 103.859 34.9698 103.988 34.9453C104.083 34.9269 104.255 35.0189 104.243 34.8196C104.233 34.6633 104.095 34.6235 103.954 34.6143C103.82 34.6082 103.697 34.648 103.584 34.7154C103.458 34.789 103.39 34.6909 103.338 34.6143C103.246 34.4825 103.381 34.4426 103.458 34.3966C104.037 34.038 104.662 34.3691 104.684 35.0434C104.687 35.1446 104.684 35.2457 104.684 35.3469M104.025 35.2396C103.872 35.2978 103.62 35.2518 103.62 35.5216C103.62 35.6748 103.774 35.6657 103.887 35.6687C104.086 35.6687 104.224 35.586 104.243 35.3745C104.258 35.2181 104.132 35.2396 104.022 35.2365" fill="#292929"></path><path d="M99.4241 36.0149C98.9919 35.9965 98.6915 35.8463 98.5536 35.4785C98.4187 35.126 98.4678 34.7857 98.7498 34.5221C99.0287 34.2646 99.3628 34.2003 99.7153 34.3535C99.8073 34.3934 100.019 34.4118 99.9207 34.5988C99.8625 34.706 99.7674 34.8654 99.5774 34.7551C99.3506 34.6233 99.1605 34.6784 99.0134 34.8838C98.8908 35.0555 98.8939 35.2394 99.0134 35.411C99.1575 35.6195 99.3751 35.6746 99.5866 35.5551C99.7981 35.4356 99.8564 35.6011 99.9146 35.7084C100.022 35.9076 99.8042 35.8923 99.7092 35.9383C99.6081 35.9873 99.4885 35.9965 99.4272 36.0118" fill="#292929"></path><path d="M47.551 34.663C47.551 34.3166 47.5541 33.9702 47.551 33.6239C47.551 33.4737 47.5664 33.3786 47.7564 33.3756C47.9403 33.3725 47.9679 33.4553 47.9679 33.6116C47.9618 34.3043 47.9618 34.9971 47.9679 35.6929C47.9679 35.8492 47.9679 35.978 47.7503 35.9688C47.5572 35.9596 47.5541 35.8431 47.5572 35.7052C47.5572 35.3588 47.5572 35.0124 47.5572 34.666" fill="#292929"></path><path d="M76.306 36.0059C75.929 36.0181 75.7696 35.8373 75.7481 35.5124C75.739 35.356 75.7481 35.1966 75.7451 35.0372C75.7451 34.979 75.7359 34.9208 75.7451 34.8656C75.8064 34.5897 75.2761 34.7644 75.4202 34.4456C75.4937 34.2862 75.8493 34.3445 75.7512 34.0196C75.7022 33.8633 75.834 33.8418 75.9658 33.8418C76.1007 33.8418 76.1957 33.8632 76.1804 34.0257C76.165 34.2157 76.1773 34.3782 76.4409 34.3384C76.5696 34.32 76.6187 34.3813 76.6187 34.51C76.6187 34.6388 76.5604 34.7031 76.4378 34.6847C76.2171 34.651 76.1436 34.7552 76.1834 34.9514C76.2325 35.1844 76.0302 35.5062 76.3765 35.6258C76.5145 35.6717 76.6555 35.6319 76.6187 35.8495C76.5758 36.0764 76.3919 35.966 76.306 36.0059Z" fill="#292929"></path><path d="M44.0229 34.6786C44.0229 35.0096 44.0229 35.3407 44.0229 35.6748C44.0229 35.8127 44.0688 35.9721 43.8267 35.9691C43.6183 35.9691 43.5968 35.8618 43.5999 35.6963C43.606 35.0035 43.606 34.3108 43.5999 33.6211C43.5999 33.4678 43.6244 33.3881 43.8053 33.3789C44.0229 33.3697 44.029 33.4832 44.0259 33.6456C44.0198 33.992 44.0259 34.3384 44.0259 34.6847" fill="#292929"></path><path d="M108.151 35.1597C108.151 35.0432 108.157 34.9267 108.151 34.8133C108.132 34.4823 108.117 34.1666 108.617 34.3995C108.684 34.4302 108.813 34.3106 108.917 34.2922C109.033 34.2708 109.196 34.2156 109.208 34.4271C109.214 34.562 109.263 34.7183 109.012 34.703C108.696 34.6846 108.583 34.8869 108.586 35.175C108.586 35.362 108.577 35.5521 108.586 35.739C108.595 35.9138 108.515 35.9597 108.353 35.9659C108.166 35.972 108.138 35.877 108.145 35.7237C108.154 35.5367 108.145 35.3467 108.145 35.1597" fill="#292929"></path></svg>